<svg width="24" height="24" viewBox="0 0 24 24" fill="none" xmlns="http://www.w3.org/2000/svg">
<mask id="mask0_1_118" style="mask-type:luminance" maskUnits="userSpaceOnUse" x="0" y="0" width="24" height="24">
<path d="M0 0H24V24H0V0Z" fill="white"/>
</mask>
<g mask="url(#mask0_1_118)">
<path d="M20.0025 10.0002V7.33287C20.0025 5.8605 18.8088 4.66685 17.3365 4.66685H17.3358V10.0002H20.0025Z" stroke="black" stroke-width="2" stroke-miterlimit="10" stroke-linecap="round" stroke-linejoin="round"/>
<path d="M17.3309 4.66663C17.3309 3.19397 16.137 1.99995 14.6642 1.99995H9.33086C7.85813 1.99995 6.66422 3.19397 6.66422 4.66663V19.3333H17.3309V4.66663Z" stroke="black" stroke-width="2" stroke-miterlimit="10" stroke-linecap="round" stroke-linejoin="round"/>
<path d="M9.33057 8.66667H14.6639V4.66667H9.33057V8.66667Z" stroke="black" stroke-width="2" stroke-miterlimit="10" stroke-linecap="round" stroke-linejoin="round"/>
<path d="M19.9972 22C19.9972 21.2927 19.7163 20.6147 19.2162 20.1144C18.7161 19.6143 18.0378 19.3333 17.3306 19.3333H6.66391C5.95669 19.3333 5.2784 19.6143 4.77831 20.1144C4.27819 20.6147 3.99723 21.2927 3.99723 22H19.9972Z" stroke="black" stroke-width="2" stroke-miterlimit="10" stroke-linecap="round" stroke-linejoin="round"/>
<path d="M12.0028 11.3332C12.0028 11.3332 10.0028 12.9998 10.0028 14.6665C10.0028 15.7705 10.8989 16.6665 12.0028 16.6665C13.1066 16.6665 14.0028 15.7705 14.0028 14.6665C14.0028 12.9998 12.0028 11.3332 12.0028 11.3332Z" stroke="black" stroke-width="2" stroke-miterlimit="10" stroke-linecap="round" stroke-linejoin="round"/>
<path d="M17.3358 15.3332C17.3358 16.0695 17.9327 16.6665 18.6691 16.6665C19.4055 16.6665 20.0025 16.0695 20.0025 15.3332V9.99983" stroke="black" stroke-width="2" stroke-miterlimit="10" stroke-linecap="round" stroke-linejoin="round"/>
<path d="M2 22H22" stroke="black" stroke-width="2" stroke-miterlimit="10" stroke-linecap="round" stroke-linejoin="round"/>
</g>
</svg>
