<svg width="36" height="34" viewBox="0 0 36 34" fill="none" xmlns="http://www.w3.org/2000/svg">
<path d="M22.6879 16.125C21.2504 17.5625 19.8754 18.9375 18.4379 20.375C17.5629 19.5 16.6254 18.5625 15.7504 17.6875C14.6254 16.5625 12.8129 18.3125 14.0004 19.4375C15.1879 20.625 16.3754 21.8125 17.5629 23C18.0629 23.5 18.8754 23.5 19.3129 23L24.4379 17.875C25.6254 16.75 23.8754 15 22.6879 16.125Z" fill="white"/>
<path d="M30.2503 2.5C30.2503 2.375 30.2503 2.25 30.2503 2.125C30.2503 1.5 29.6878 0.875 29.0003 0.875C28.3128 0.875 27.7503 1.4375 27.7503 2.125V2.5H12.3128V2.4375C12.3128 2.3125 12.3128 2.1875 12.3128 2.0625C12.3128 1.4375 11.7503 0.8125 11.0628 0.8125C10.3753 0.8125 9.81283 1.375 9.81283 2.0625V2.5625C6.93783 2.5625 4.56283 4.9375 4.56283 7.8125V12.625C4.50033 12.8125 4.43783 12.9375 4.43783 13.125C4.06283 15.8125 3.43783 18.5 2.56283 21.0625C2.12533 22.25 1.62533 23.5 1.06283 24.625C0.562826 25.6875 0.625325 26.875 1.25033 27.8125C1.87533 28.75 2.87533 29.3125 4.00033 29.3125H4.68783C5.25033 31.625 7.31283 33.3125 9.81283 33.3125H30.0628C32.9378 33.3125 35.3128 30.9375 35.3128 28.0625V7.75C35.3128 4.875 33.0628 2.625 30.2503 2.5ZM9.75033 5V5.25C9.75033 5.875 10.3128 6.5 11.0003 6.5C11.6878 6.5 12.2503 5.9375 12.2503 5.25C12.2503 5.1875 12.2503 5.0625 12.2503 5H27.7503V5.375C27.7503 6 28.3128 6.625 29.0003 6.625C29.6878 6.625 30.2503 6.0625 30.2503 5.375C30.2503 5.25 30.2503 5.125 30.2503 5C31.6878 5.125 32.8128 6.3125 32.8128 7.75V10.75C32.7503 10.75 32.6253 10.75 32.5628 10.75H7.00033V7.75C7.00033 6.1875 8.25032 5 9.75033 5ZM3.31283 26.4375C3.18783 26.1875 3.12533 25.9375 3.25033 25.6875C3.81283 24.4375 4.37533 23.1875 4.81283 21.875C5.75033 19.125 6.43783 16.3125 6.81283 13.4375C6.81283 13.375 6.87533 13.3125 6.93783 13.3125H32.5003C32.5003 13.3125 32.5628 13.3125 32.6253 13.375C32.6253 13.375 32.6878 13.4375 32.6878 13.5C32.3753 16.3125 31.7503 19.0625 30.8753 21.6875C30.4378 23 29.8753 24.3125 29.2503 25.625C28.8753 26.375 28.0628 26.875 27.1878 26.875H4.00033C3.68783 26.75 3.43783 26.625 3.31283 26.4375ZM30.0628 30.75H9.75033C8.68782 30.75 7.81283 30.125 7.31283 29.25H27.1253C28.9378 29.25 30.6253 28.1875 31.4378 26.5625C31.9378 25.5625 32.3753 24.5 32.7503 23.4375V28C32.8128 29.5 31.5628 30.75 30.0628 30.75Z" fill="white"/>
</svg>
