<svg width="112" height="44" viewBox="0 0 112 44" fill="none" xmlns="http://www.w3.org/2000/svg">
<path d="M93.4677 31.0651C93.4933 31.2287 93.7078 31.3854 93.9155 31.4595C93.9921 31.4851 94.0295 31.5362 93.9495 31.71C93.357 32.9812 92.8121 33.7141 92.0694 34.8187C91.3858 35.8393 90.6161 36.6355 89.6843 37.4014C88.2787 38.5655 86.3266 39.8328 84.7128 38.9809C83.9961 38.6086 83.6858 37.6044 83.6997 36.7916C83.7337 34.5057 84.7498 32.1591 86.626 29.8527C88.9132 27.0345 91.4417 25.5727 93.1011 26.3717C94.8179 27.1913 94.2701 29.1807 93.5011 30.7423C93.4415 30.8633 93.4416 30.9655 93.4671 31.0643M111.891 13.2539C112.014 13.0358 111.884 12.8765 111.609 12.8765C110.175 12.8765 108.294 12.8797 106.799 12.8797C106.444 12.8797 106.26 12.9222 106.092 13.2545C105.54 14.312 98.8195 24.3934 97.5685 26.3512C97.3574 26.6494 97.1003 26.6075 97.0705 26.2659C96.9436 25.1031 95.9403 23.7665 94.3596 23.1269C93.1549 22.6379 91.9772 22.5492 90.7527 22.712C88.5421 23.0093 86.5727 24.1764 84.8413 25.4927C82.2316 27.4782 79.9801 30.0517 77.0736 31.9532C75.487 32.9884 73.3142 33.8911 71.8603 32.5436C70.5445 31.3226 70.6932 28.6109 72.7064 26.5135C72.9183 26.2937 73.1728 26.4794 73.1328 26.6745C72.943 27.623 73.1754 28.5663 73.8955 29.2277C74.7737 30.0157 76.0308 30.1047 77.1066 29.5787C78.3761 28.9491 79.1222 27.7334 79.3396 26.3536C79.6758 24.2133 78.0298 22.3256 75.97 22.1742C74.2967 22.0566 72.692 22.6393 71.1285 23.9308C70.3445 24.5817 69.8993 25.0626 69.2213 26.0276C69.0562 26.2653 68.8024 26.289 68.8101 25.938C68.8867 23.1978 67.7554 21.6561 65.4919 21.6058C63.7348 21.5632 61.8579 22.5178 60.3948 23.6853C58.791 24.9744 57.3887 26.6828 55.8852 28.288C55.6979 28.4857 55.5353 28.4763 55.4825 28.0929C55.44 26.2773 54.9812 24.5187 54.1417 23.2699C53.8446 22.8354 53.2192 22.6207 52.6938 22.9137C52.4512 23.0466 51.6074 23.4352 50.9928 23.9303C50.6881 24.1817 50.5688 24.5455 50.7042 25.0118C51.5146 27.7243 51.3366 30.8083 50.2368 33.413C49.2271 35.7987 47.265 37.9502 44.9587 38.6785C43.4394 39.1607 41.86 38.9248 40.8826 37.5766C39.5404 35.7161 40.0824 32.4804 42.0833 29.7937C43.849 27.4279 46.4033 25.9251 48.9509 24.9574C49.2506 24.8416 49.3127 24.649 49.2276 24.3943C49.0897 23.9751 48.8683 23.4042 48.779 23.1437C48.5449 22.5209 47.8908 22.4203 47.0918 22.5072C45.2407 22.7228 43.5708 23.3575 41.9213 24.2415C37.602 26.5565 35.4363 31.0369 34.4874 33.4338C34.0303 34.5853 33.6395 35.3035 33.1346 35.9405C32.4536 36.797 31.5988 37.5769 30.0358 38.9507C29.8945 39.0768 29.789 39.3392 29.9081 39.5837C30.0673 39.9143 30.8803 41.0633 31.1096 41.1658C31.3641 41.291 31.6594 41.1146 31.7778 41.0311C32.8714 40.289 34.18 39.113 34.8203 38.3153C35.045 38.0418 35.2757 38.1569 35.3949 38.5718C35.9925 40.7055 37.5572 42.4478 39.7209 43.1766C43.6814 44.5134 47.7892 42.5785 50.8899 39.2101C52.8605 37.0691 53.5717 35.692 54.3271 34.7562C55.6072 33.1688 58.1322 29.6177 61.1397 27.3377C62.2427 26.4969 63.5478 25.8555 64.2041 26.2815C64.731 26.6231 64.9013 27.4171 64.056 28.9555C60.9896 34.5597 56.478 41.1441 55.6506 42.7407C55.4991 43.0176 55.6336 43.2356 55.9213 43.2356C57.5259 43.2277 59.1165 43.2317 60.573 43.2317C60.8156 43.2232 60.9238 43.1091 61.0456 42.9378C63.3988 39.2511 65.6133 35.7423 67.9871 32.1144C68.1199 31.9006 68.2424 32.0632 68.2475 32.157C68.2986 32.9987 68.5029 34.1499 69.0026 34.9059C69.9 36.3035 71.1714 36.904 72.5817 36.9132C73.7038 36.9303 74.2716 36.7555 75.4816 36.3032C76.4662 35.9377 77.2566 35.458 77.8632 35.024C78.2174 34.7769 78.2795 35.1901 78.271 35.2531C77.7262 38.1799 78.3987 41.6478 81.305 43.0856C84.7831 44.802 88.6041 42.3895 90.8028 40.2117C91.0182 40.0021 91.2488 40.0243 91.2709 40.4767C91.322 41.3082 91.6931 42.2949 92.3804 42.9854C94.223 44.836 97.9409 44.1026 101.672 41.2122C104.068 39.3616 106.574 36.747 108.838 33.9784C108.923 33.871 108.985 33.6989 108.821 33.5243C108.477 33.1631 107.978 32.7498 107.636 32.4316C107.48 32.2987 107.251 32.337 107.12 32.4362C104.799 34.6453 102.71 37.1646 99.6906 39.248C98.6722 39.9594 97.0492 40.5333 96.3202 39.5455C96.0359 39.1621 96.0683 38.632 96.3458 37.9361C97.2261 35.7389 111.164 14.5003 111.888 13.2476" fill="black"/>
<path d="M46.3153 15.8167C46.3749 16.132 46.4976 16.1934 46.6406 16.167C47.3505 16.0247 48.1275 15.4402 48.5875 14.7627C49.0063 14.1484 49.2029 13.262 48.7866 12.9068C48.4155 12.5874 47.8112 12.6776 47.3631 13.0738C46.471 13.8627 46.2001 14.982 46.3151 15.8174M10.7909 43.1562C5.59396 43.1902 1.01553 39.9781 0.490144 34.4136C0.198168 31.3301 1.069 28.582 2.81243 26.318C4.35948 24.3006 6.9772 22.6246 9.19298 22.2152C9.91399 22.0831 10.8828 22.1641 11.2833 22.6446C11.9115 23.3764 11.731 24.1803 11.1027 24.5011C9.41226 25.3649 7.37817 26.8438 6.37166 28.8631C5.55532 30.5113 5.39038 32.4976 6.63728 34.3899C8.72427 37.5435 14.5418 37.6303 19.9508 32.6009C21.2904 31.3699 22.4892 30.1873 23.7077 28.7864C26.0901 26.0601 26.8825 25.0667 30.0493 20.6703C30.0833 20.6192 30.1004 20.5526 30.0833 20.5203C30.0578 20.4606 30.0153 20.4521 29.9208 20.4436C27.8068 20.5032 25.9636 21.1329 24.1721 22.4729C23.6562 22.8494 22.9137 22.7966 22.5886 22.3007C22.2268 21.7401 22.4865 21.0104 23.0815 20.5983C25.9635 18.5922 29.1117 18.2284 32.3268 17.6854C32.3241 17.6854 32.5499 17.6938 32.7337 17.4519C34.0535 15.7566 35.0501 14.2275 36.457 12.5131C37.8746 10.7736 39.7057 9.1763 41.1047 7.97648C43.0575 6.29589 44.31 5.73035 45.5828 5.03719C45.9181 4.86169 45.5402 4.65213 45.4381 4.65213C38.3319 3.3154 30.9456 1.58566 23.8883 4.20051C19.0006 6.02602 16.8587 9.90524 17.8889 12.4973C18.6219 14.3361 21.038 14.635 23.3001 13.5271C25.1789 12.6058 26.9175 11.1209 28.1501 9.20939C28.8396 8.14785 30.2925 8.91373 29.5075 10.757C27.4423 15.6151 23.497 19.4686 18.6913 19.6313C14.6013 19.7642 11.9625 16.7528 11.9711 13.0376C11.9881 5.70987 20.1386 0.882913 28.7046 0.161299C39.0204 -0.691944 48.7911 2.05825 59.0337 3.3017C66.8813 4.25283 74.4051 4.27262 82.2931 2.45904C83.2255 2.25627 83.8798 2.85178 83.819 3.7944C83.7424 5.15694 82.6876 6.4692 80.0898 7.8873C77.1351 9.5091 74.0442 10.0012 70.8159 10.0276C63.01 10.0958 55.7386 7.04731 48.2142 5.41094C48.2227 5.74065 48.3096 6.13334 48.0338 6.34148C43.8658 9.41835 40.0984 12.5429 37.5752 16.9315C37.4901 17.0329 37.5326 17.1292 37.6833 17.119C39.874 17.0022 41.8441 16.946 43.8894 16.7824C44.2469 16.7483 44.2604 16.6631 44.2289 16.4024C44.0476 14.8897 44.4894 13.1648 45.8189 11.9783C47.1796 10.7572 48.8833 10.6184 50.0128 11.4978C51.2968 12.4992 51.1831 14.3001 50.4809 15.6507C49.7658 17.0211 48.5849 17.7541 47.4516 18.1099C47.4516 18.1099 47.2132 18.1611 47.249 18.3775C47.2915 18.7234 48.8378 19.5798 48.9699 19.808C49.0976 20.0252 49.0295 20.3618 48.7971 20.62C48.6337 20.8074 48.3775 20.9829 48.0497 20.9769C47.785 20.9717 47.6241 20.8798 47.2853 20.6967C46.5924 20.321 45.7264 19.7032 45.1488 18.975C44.9522 18.7287 44.8517 18.7237 44.3605 18.751C42.1473 18.8788 38.6964 19.2127 36.3583 19.505C35.7914 19.5731 35.7079 19.6813 35.5913 19.8781C31.8634 26.0305 27.8831 32.6652 23.5129 37.1073C18.8254 41.8701 14.9291 43.1241 10.7928 43.1566" fill="black"/>
</svg>
