<svg width="28" height="28" viewBox="0 0 28 28" fill="none" xmlns="http://www.w3.org/2000/svg">
<path d="M25.6709 19.74V23.24C25.6722 23.5649 25.6057 23.8866 25.4755 24.1843C25.3453 24.482 25.1544 24.7492 24.915 24.9689C24.6756 25.1885 24.3929 25.3558 24.0851 25.4599C23.7773 25.5639 23.4512 25.6026 23.1276 25.5734C19.5376 25.1833 16.0891 23.9565 13.0592 21.9917C10.2404 20.2005 7.85047 17.8106 6.05925 14.9917C4.08755 11.9481 2.86053 8.48286 2.47758 4.8767C2.44842 4.55408 2.48677 4.22892 2.59016 3.92193C2.69356 3.61494 2.85974 3.33284 3.07814 3.09359C3.29653 2.85434 3.56235 2.66319 3.85867 2.53231C4.15499 2.40142 4.47531 2.33367 4.79925 2.33337H8.29925C8.86544 2.32779 9.41434 2.52829 9.84363 2.89749C10.2729 3.26668 10.5533 3.77939 10.6326 4.34003C10.7803 5.46011 11.0543 6.55988 11.4492 7.61836C11.6062 8.03594 11.6402 8.48977 11.5471 8.92606C11.4541 9.36235 11.2379 9.76283 10.9242 10.08L9.44258 11.5617C11.1034 14.4825 13.5218 16.9009 16.4426 18.5617L17.9242 17.08C18.2414 16.7664 18.6419 16.5502 19.0782 16.4571C19.5145 16.3641 19.9683 16.3981 20.3859 16.555C21.4444 16.95 22.5442 17.224 23.6642 17.3717C24.231 17.4516 24.7485 17.7371 25.1185 18.1738C25.4885 18.6104 25.6851 19.1679 25.6709 19.74Z" stroke="white" stroke-width="2" stroke-linecap="round" stroke-linejoin="round"/>
</svg>
