<svg width="110" height="44" viewBox="0 0 110 44" fill="none" xmlns="http://www.w3.org/2000/svg">
<path d="M91.5042 23.4891C91.4156 28.3843 92.4717 30.9772 96.5025 30.9772C100.527 30.9772 101.104 26.5603 101.104 23.1992C101.104 19.8359 100.34 16.5709 96.1125 16.5709C93.5189 16.5709 91.6039 18.5886 91.5042 23.4891ZM83.3496 43.9454V10.8092H91.6039C91.6039 10.8092 91.6039 11.289 91.6039 12.1533C91.6039 13.9462 92.3262 13.2069 92.9081 12.5082C93.0056 12.3914 94.8452 10.1371 98.9883 10.1371C103.119 10.1371 109.545 13.0176 109.545 23.1992C109.545 31.0748 105.711 36.8366 99.0902 36.8366C95.442 36.8366 93.3328 35.3985 92.8505 34.8181C92.3675 34.2459 91.697 34.1461 91.697 34.8181C91.697 35.4917 91.697 43.9454 91.697 43.9454H83.3496Z" fill="black"/>
<path d="M19.552 0.0545616H28.4747C28.4747 0.0545616 28.4747 19.4537 28.4747 23.4891C28.4747 27.52 26.7458 35.9745 14.3721 35.9745C1.99691 35.9745 0.654297 28.0945 0.654297 23.6798V19.3583H9.28895C9.28895 19.3583 9.28895 20.9908 9.28895 23.5822C9.28895 26.1751 11.0163 28.5751 14.2761 28.5751C17.5374 28.5751 19.552 26.7511 19.552 23.6798C19.552 20.6063 19.552 0.0545616 19.552 0.0545616Z" fill="black"/>
<path d="M47.1329 19.9342C47.1329 17.5306 45.7925 15.226 42.7225 15.226C39.7485 15.226 38.6925 17.3369 38.6925 19.9342H47.1329ZM41.8621 9.84873C48.8691 9.84873 55.0061 12.537 55.0061 24.9271H38.4111C38.4111 28.8649 40.0402 30.4981 42.9182 30.4981C45.7969 30.4981 46.7555 28.1913 46.7555 28.1913H54.9123C54.9123 31.7461 50.019 36.5482 42.6302 36.4528C34.1905 36.4528 30.0645 30.2097 30.0645 23.7744C30.0645 17.3369 33.7075 9.84873 41.8621 9.84873Z" fill="black"/>
<path d="M73.6624 19.9342C73.6624 17.5306 72.3206 15.226 69.2506 15.226C66.2781 15.226 65.2198 17.3369 65.2198 19.9342H73.6624ZM68.3917 9.84873C75.3979 9.84873 81.5335 12.537 81.5335 24.9271H64.9392C64.9392 28.8649 66.5698 30.4981 69.45 30.4981C72.3257 30.4981 73.2858 28.1913 73.2858 28.1913H81.4426C81.4426 31.7461 76.5485 36.5482 69.162 36.4528C60.7178 36.4528 56.5918 30.2097 56.5918 23.7744C56.5918 17.3369 60.2393 9.84873 68.3917 9.84873Z" fill="black"/>
<path d="M104.081 39.9727C104.081 38.6604 105.149 37.5943 106.464 37.5943C107.775 37.5943 108.84 38.6604 108.84 39.9727C108.84 41.2829 107.775 42.3557 106.464 42.3557C105.149 42.3557 104.081 41.2829 104.081 39.9727ZM103.807 39.9727C103.807 41.4411 104.994 42.6329 106.464 42.6329C107.924 42.6329 109.118 41.4411 109.118 39.9727C109.118 38.5044 107.924 37.3126 106.464 37.3126C104.994 37.3126 103.807 38.5044 103.807 39.9727Z" fill="black"/>
<path d="M107.53 41.3331L106.979 40.0289C107.154 39.9683 107.212 39.9254 107.305 39.8256C107.426 39.6955 107.502 39.4899 107.502 39.3036C107.502 38.8334 107.141 38.5132 106.618 38.5132H105.51V41.3331H105.838V40.1117H106.639L107.165 41.3331H107.53ZM105.83 39.8256V38.8201H106.611C106.937 38.8201 107.145 39.0064 107.145 39.2947C107.145 39.6223 106.925 39.8256 106.565 39.8256H105.83Z" fill="black"/>
</svg>
