<svg width="24" height="24" viewBox="0 0 24 24" fill="none" xmlns="http://www.w3.org/2000/svg">
<path d="M23.9921 12.0004C23.9921 18.0612 19.5008 23.0717 13.6663 23.8848C13.1208 23.9605 12.5626 24 11.996 24C11.3421 24 10.6999 23.9479 10.0745 23.847C4.36266 22.9271 0 17.9729 0 12.0004C0 5.37294 5.37136 0 11.9969 0C18.6224 0 23.9938 5.37294 23.9938 12.0004H23.9921Z" fill="black"/>
<path d="M13.6662 9.63594V12.2501H16.8991L16.3872 15.7715H13.6662V23.8848C13.1206 23.9604 12.5625 24 11.9959 24C11.342 24 10.6997 23.9478 10.0743 23.8469V15.7715H7.09277V12.2501H10.0743V9.05156C10.0743 7.06719 11.6824 5.45782 13.667 5.45782V5.45951C13.6729 5.45951 13.6779 5.45782 13.6838 5.45782H16.8999V8.50334H14.7985C14.1739 8.50334 13.667 9.01036 13.667 9.63511L13.6662 9.63594Z" fill="white"/>
</svg>
