<svg width="25" height="24" viewBox="0 0 25 24" fill="none" xmlns="http://www.w3.org/2000/svg">
<path d="M24.9734 12C24.9734 5.37258 19.6024 0 12.9769 0C6.35148 0 0.980469 5.37258 0.980469 12C0.980469 18.6274 6.35148 24 12.9769 24C19.6024 24 24.9734 18.6274 24.9734 12Z" fill="black"/>
<path d="M20.5307 9.51334C20.4363 8.60181 20.2332 7.59416 19.4854 7.06461C18.9063 6.65395 18.1451 6.63877 17.4345 6.63962C15.9323 6.63962 14.4292 6.64215 12.927 6.64299C11.4822 6.64468 10.0373 6.64552 8.59242 6.64721C7.98885 6.64721 7.40213 6.60083 6.84155 6.86223C6.3602 7.08653 5.98339 7.51321 5.75663 7.98794C5.4422 8.64819 5.37645 9.39614 5.33851 10.1264C5.26855 11.4561 5.27613 12.7893 5.35959 14.1182C5.42113 15.0879 5.57707 16.1597 6.32649 16.7778C6.99075 17.325 7.92815 17.352 8.78967 17.3529C11.5243 17.3554 14.2598 17.3579 16.9953 17.3596C17.3459 17.3604 17.7118 17.3537 18.0692 17.3149C18.7723 17.239 19.4424 17.0375 19.8943 16.5164C20.3503 15.991 20.4675 15.26 20.5366 14.5677C20.7052 12.8879 20.7035 11.1922 20.5307 9.51334ZM11.3456 14.3543V9.64489L15.4223 11.9992L11.3456 14.3543Z" fill="white"/>
</svg>
