<svg width="34" height="32" viewBox="0 0 34 32" fill="none" xmlns="http://www.w3.org/2000/svg">
<path fill-rule="evenodd" clip-rule="evenodd" d="M18.5215 28.9506H3.21763C3.13692 28.9506 3.05926 28.9186 3.00291 28.8623C2.94505 28.8044 2.91307 28.7267 2.91307 28.646V26.438C2.91307 25.1741 3.81608 24.0594 5.20789 23.1107C7.69306 21.4159 11.7147 20.3469 16.2374 20.3469C16.8678 20.3469 17.3794 19.8352 17.3794 19.2048C17.3794 18.5744 16.8678 18.0627 16.2374 18.0627C11.1787 18.0627 6.70021 19.3282 3.91962 21.224C1.7984 22.6707 0.628906 24.5086 0.628906 26.438V28.646C0.628906 29.3328 0.901483 29.9922 1.38725 30.4764C1.87301 30.9622 2.53085 31.2347 3.21763 31.2347H18.5215C19.152 31.2347 19.6636 30.7231 19.6636 30.0927C19.6636 29.4622 19.152 28.9506 18.5215 28.9506Z" fill="white"/>
<path fill-rule="evenodd" clip-rule="evenodd" d="M16.2385 0C11.6154 0 7.86328 3.75212 7.86328 8.37527C7.86328 12.9969 11.6154 16.7505 16.2385 16.7505C20.8617 16.7505 24.6138 12.9969 24.6138 8.37527C24.6138 3.75212 20.8617 0 16.2385 0ZM16.2385 2.28416C19.6008 2.28416 22.3297 5.01298 22.3297 8.37527C22.3297 11.736 19.6008 14.4664 16.2385 14.4664C12.8763 14.4664 10.1474 11.736 10.1474 8.37527C10.1474 5.01298 12.8763 2.28416 16.2385 2.28416Z" fill="white"/>
<path fill-rule="evenodd" clip-rule="evenodd" d="M24.5651 31.6648C24.7783 31.878 25.0691 31.9983 25.3721 31.9983C25.6752 31.9983 25.966 31.878 26.1792 31.6648L31.8576 25.9864C33.8692 23.9748 33.8692 20.7069 31.8576 18.6938C30.0958 16.9335 27.3731 16.7127 25.3721 18.0344C23.3712 16.7127 20.6485 16.9335 18.8866 18.6938C16.8827 20.6993 16.8751 23.9489 18.8638 25.9635L24.5651 31.6648ZM25.3721 29.2421L20.4871 24.357C19.3815 23.2347 19.3861 21.4257 20.5023 20.3095C21.6231 19.1887 23.4443 19.1887 24.5651 20.3095C25.0112 20.7556 25.733 20.7556 26.1792 20.3095C27.3015 19.1887 29.1212 19.1887 30.242 20.3095C31.3627 21.4302 31.3627 23.2499 30.242 24.3722L25.3721 29.2421Z" fill="white"/>
</svg>
