<svg width="54" height="52" viewBox="0 0 54 52" fill="none" xmlns="http://www.w3.org/2000/svg">
<path fill-rule="evenodd" clip-rule="evenodd" d="M39.0251 3.25858C47.3432 7.5536 53.0254 16.1167 53.0254 25.9872C53.0254 35.8577 47.3432 44.4478 39.0251 48.7165V45.7816C42.2062 43.9132 44.8971 41.2989 46.8551 38.2047L39.0251 35.0842V30.3355L47.6154 36.9249C49.4098 33.67 50.4156 29.9616 50.4156 25.9865C50.4156 17.6098 45.8479 10.2475 39.0251 6.19213V3.25858ZM26.9279 0.350677C31.2777 0.350677 35.3821 1.39153 39.0251 3.25858V6.19348C35.6811 4.21843 31.7665 3.04528 27.6346 2.91163L30.6246 23.9068L39.0251 30.3362V35.0848L26.8729 30.2559L14.8025 35.1112V30.3889L23.2573 23.9062L26.2205 2.91095C22.0336 3.0446 18.1465 4.21843 14.8025 6.19213V3.25858C18.4187 1.39153 22.5506 0.350677 26.9279 0.350677ZM39.0251 48.7165C35.3821 50.5835 31.277 51.65 26.9279 51.65C22.5513 51.65 18.4194 50.5835 14.8031 48.7428V45.7816C18.3376 47.8882 22.4963 49.0891 26.9279 49.0891C31.332 49.0891 35.4646 47.8882 39.0251 45.7816V48.7165ZM14.8031 48.7428C6.45689 44.4478 0.775391 35.8577 0.775391 25.9872C0.775391 16.1167 6.45689 7.5536 14.8031 3.25858V6.19348C7.9522 10.2482 3.38514 17.5841 3.38514 25.9872C3.38514 29.9616 4.41845 33.724 6.21283 36.9782L14.8031 30.3889V35.1112L7.0007 38.258C8.95802 41.3272 11.6221 43.9138 14.8031 45.7816V48.7428Z" fill="black"/>
</svg>
