<svg width="25" height="24" viewBox="0 0 25 24" fill="none" xmlns="http://www.w3.org/2000/svg">
<path d="M24.9789 12.0004C24.9789 18.0612 20.4876 23.0717 14.6531 23.8848C14.1076 23.9605 13.5494 24 12.9829 24C12.3289 24 11.6867 23.9479 11.0613 23.847C5.34947 22.9271 0.986816 17.9729 0.986816 12.0004C0.986816 5.37294 6.35818 0 12.9837 0C19.6092 0 24.9806 5.37294 24.9806 12.0004H24.9789Z" fill="black"/>
<path d="M5.85136 5.29311L11.3841 12.6925L5.81689 18.7087H7.07022L11.9448 13.4417L15.8829 18.7087H20.1473L14.3035 10.8931L19.4857 5.29311H18.2324L13.7436 10.1439L10.1165 5.29311H5.85219H5.85136ZM7.69393 6.21634H9.6525L18.303 17.7854H16.3444L7.69393 6.21634Z" fill="white"/>
</svg>
