<svg width="25" height="24" viewBox="0 0 25 24" fill="none" xmlns="http://www.w3.org/2000/svg">
<path d="M24.9734 12C24.9734 5.37258 19.6024 0 12.9769 0C6.35148 0 0.980469 5.37258 0.980469 12C0.980469 18.6274 6.35148 24 12.9769 24C19.6024 24 24.9734 18.6274 24.9734 12Z" fill="black"/>
<path d="M20.5312 9.51334C20.4368 8.60181 20.2336 7.59416 19.4859 7.06461C18.9068 6.65395 18.1456 6.63877 17.4349 6.63962C15.9327 6.63962 14.4297 6.64215 12.9275 6.64299C11.4827 6.64468 10.0378 6.64552 8.59291 6.64721C7.98933 6.64721 7.40262 6.60083 6.84203 6.86223C6.36069 7.08653 5.98388 7.51321 5.75712 7.98794C5.44269 8.64819 5.37694 9.39614 5.339 10.1264C5.26903 11.4561 5.27662 12.7893 5.36008 14.1182C5.42161 15.0879 5.57756 16.1597 6.32697 16.7778C6.99124 17.325 7.92864 17.352 8.79016 17.3529C11.5248 17.3554 14.2603 17.3579 16.9958 17.3596C17.3464 17.3604 17.7123 17.3537 18.0697 17.3149C18.7728 17.239 19.4429 17.0375 19.8948 16.5164C20.3508 15.991 20.468 15.26 20.5371 14.5677C20.7057 12.8879 20.704 11.1922 20.5312 9.51334ZM11.3461 14.3543V9.64489L15.4228 11.9992L11.3461 14.3543Z" fill="white"/>
</svg>
