<svg width="24" height="24" viewBox="0 0 24 24" fill="none" xmlns="http://www.w3.org/2000/svg">
<path d="M12.0174 0H11.9628C5.35242 0 -0.00634766 5.36035 -0.00634766 11.9727V12.0273C-0.00634766 18.6397 5.35242 24 11.9628 24H12.0174C18.6278 24 23.9866 18.6397 23.9866 12.0273V11.9727C23.9866 5.36035 18.6278 0 12.0174 0Z" fill="black"/>
<path d="M15.7018 4.88257H8.27771C6.22667 4.88257 4.55811 6.55163 4.55811 8.60327V15.3972C4.55811 17.4489 6.22667 19.1179 8.27771 19.1179H15.7018C17.7528 19.1179 19.4214 17.4489 19.4214 15.3972V8.60327C19.4214 6.55163 17.7528 4.88257 15.7018 4.88257ZM5.87027 8.60327C5.87027 7.27559 6.95042 6.19511 8.27771 6.19511H15.7018C17.0291 6.19511 18.1092 7.27559 18.1092 8.60327V15.3972C18.1092 16.7249 17.0291 17.8054 15.7018 17.8054H8.27771C6.95042 17.8054 5.87027 16.7249 5.87027 15.3972V8.60327Z" fill="white"/>
<path d="M11.9897 15.4603C13.8969 15.4603 15.4495 13.9081 15.4495 11.9994C15.4495 10.0907 13.8978 8.53851 11.9897 8.53851C10.0815 8.53851 8.52979 10.0907 8.52979 11.9994C8.52979 13.9081 10.0815 15.4603 11.9897 15.4603ZM11.9897 9.8519C13.174 9.8519 14.1374 10.8155 14.1374 12.0002C14.1374 13.185 13.174 14.1486 11.9897 14.1486C10.8053 14.1486 9.84195 13.185 9.84195 12.0002C9.84195 10.8155 10.8053 9.8519 11.9897 9.8519Z" fill="white"/>
<path d="M15.7696 9.09774C16.2832 9.09774 16.7018 8.67984 16.7018 8.16525C16.7018 7.65066 16.2841 7.23276 15.7696 7.23276C15.2552 7.23276 14.8374 7.65066 14.8374 8.16525C14.8374 8.67984 15.2552 9.09774 15.7696 9.09774Z" fill="white"/>
</svg>
