<svg width="24" height="24" viewBox="0 0 24 24" fill="none" xmlns="http://www.w3.org/2000/svg">
<path d="M12.0174 0H11.9628C5.35242 0 -0.00634766 5.36035 -0.00634766 11.9727V12.0273C-0.00634766 18.6397 5.35242 24 11.9628 24H12.0174C18.6278 24 23.9866 18.6397 23.9866 12.0273V11.9727C23.9866 5.36035 18.6278 0 12.0174 0Z" fill="black"/>
<path d="M15.7016 4.88258H8.27747C6.22643 4.88258 4.55786 6.55164 4.55786 8.60329V15.3972C4.55786 17.4489 6.22643 19.1179 8.27747 19.1179H15.7016C17.7526 19.1179 19.4212 17.4489 19.4212 15.3972V8.60329C19.4212 6.55164 17.7526 4.88258 15.7016 4.88258ZM5.87002 8.60329C5.87002 7.2756 6.95018 6.19513 8.27747 6.19513H15.7016C17.0288 6.19513 18.109 7.2756 18.109 8.60329V15.3972C18.109 16.7249 17.0288 17.8054 15.7016 17.8054H8.27747C6.95018 17.8054 5.87002 16.7249 5.87002 15.3972V8.60329Z" fill="white"/>
<path d="M11.9894 15.4603C13.8967 15.4603 15.4493 13.9081 15.4493 11.9994C15.4493 10.0907 13.8975 8.53853 11.9894 8.53853C10.0813 8.53853 8.52954 10.0907 8.52954 11.9994C8.52954 13.9081 10.0813 15.4603 11.9894 15.4603ZM11.9894 9.85191C13.1738 9.85191 14.1371 10.8155 14.1371 12.0003C14.1371 13.185 13.1738 14.1486 11.9894 14.1486C10.805 14.1486 9.8417 13.185 9.8417 12.0003C9.8417 10.8155 10.805 9.85191 11.9894 9.85191Z" fill="white"/>
<path d="M15.7696 9.09775C16.2832 9.09775 16.7018 8.67985 16.7018 8.16526C16.7018 7.65066 16.2841 7.23277 15.7696 7.23277C15.2552 7.23277 14.8374 7.65066 14.8374 8.16526C14.8374 8.67985 15.2552 9.09775 15.7696 9.09775Z" fill="white"/>
</svg>
